<?xml version="1.0" encoding="UTF-8"?>
<svg width="128" height="128" version="1.1" viewBox="0 0 33.867 33.867" xmlns="http://www.w3.org/2000/svg" >
<g transform="translate(-89.441 -84.369)">
<g transform="matrix(4.3375 0 0 4.3375 -309.84 -374.96)">
<path transform="matrix(1.1258 -3.2025 3.2025 1.1258 -368.23 285.45)" d="m94.039 111.81c-0.02314 0.0638-0.10918 0.0206-0.13266-0.0175-0.05766-0.0935 0.01598-0.20675 0.10702-0.24186 0.15038-0.058 0.30796 0.0516 0.35106 0.19657 0.06102 0.20537-0.08713 0.41042-0.28612 0.46025-0.25988 0.0651-0.5134-0.12265-0.56945-0.37566-0.0696-0.31423 0.15814-0.61666 0.46521-0.67865 0.36848-0.0744 0.72007 0.19361 0.78784 0.55477 0.07327 0.39053-0.18595 0.77094-0.56206 0.8781" fill="none" stroke="#fff" stroke-width=".060999"/>
</g>
</g>
</svg>
